# xmcd
#
# Track frame offsets: 
#        150
#        81630
#        98323
#        119553
#
# Disc length: 2166 seconds
#
# Revision: 0
# Processed by: cddbd v1.5.2PL0 Copyright (c) Steve Scherf et al.
# Submitted via: ExactAudioCopy v0.99pb5
#
DISCID=2b087404
DTITLE=Rush  - Hemispheres - Warner Bros. 13477 (SHM)  
DYEAR=1900
DGENRE=
TTITLE0=Cygnus X-1 Book II
TTITLE1=Circumstances
TTITLE2=The Trees
TTITLE3=La Villa Strangiato
EXTD=
EXTT0=
EXTT1=
EXTT2=
EXTT3=
PLAYORDER=
